{
  "accessors": [
    {
      "bufferView": 2,
      "componentType": 5126,
      "count": 13300,
      "max": [
        7.08546257019043,
        4.76837158203125e-06,
        10.527170181274414
      ],
      "min": [
        -6.997734069824219,
        -10.000001907348633,
        -10.527502059936523
      ],
      "type": "VEC3"
    },
    {
      "bufferView": 2,
      "byteOffset": 159600,
      "componentType": 5126,
      "count": 13300,
      "max": [
        0.9929459691047668,
        1.0,
        1.0
      ],
      "min": [
        -0.9999885559082031,
        -1.0,
        -1.0
      ],
      "type": "VEC3"
    },
    {
      "bufferView": 1,
      "componentType": 5126,
      "count": 13300,
      "max": [
        0.9904606342315674,
        0.984059751033783
      ],
      "min": [
        0.009539380669593811,
        0.019643215462565422
      ],
      "type": "VEC2"
    },
    {
      "bufferView": 1,
      "byteOffset": 106400,
      "componentType": 5126,
      "count": 13300,
      "max": [
        0.9904606342315674,
        0.984059751033783
      ],
      "min": [
        0.009539380669593811,
        0.019643215462565422
      ],
      "type": "VEC2"
    },
    {
      "bufferView": 0,
      "componentType": 5125,
      "count": 72636,
      "type": "SCALAR"
    }
  ],
  "asset": {
    "extras": {
      "author": "Misam Ali Rizvi (https://sketchfab.com/MisamAliRizvi)",
      "license": "CC-BY-4.0 (http://creativecommons.org/licenses/by/4.0/)",
      "source": "https://sketchfab.com/3d-models/rupee-symbol-01-5a623d426b744e62ac2fc8146ffac319",
      "title": "Rupee Symbol 01"
    },
    "generator": "Sketchfab-14.91.0",
    "version": "2.0"
  },
  "bufferViews": [
    {
      "buffer": 0,
      "byteLength": 290544,
      "name": "floatBufferViews",
      "target": 34963
    },
    {
      "buffer": 0,
      "byteLength": 212800,
      "byteOffset": 290544,
      "byteStride": 8,
      "name": "floatBufferViews",
      "target": 34962
    },
    {
      "buffer": 0,
      "byteLength": 319200,
      "byteOffset": 503344,
      "byteStride": 12,
      "name": "floatBufferViews",
      "target": 34962
    }
  ],
  "buffers": [
    {
      "byteLength": 822544,
      "uri": "scene.bin"
    }
  ],
  "extensionsUsed": [
    "KHR_materials_specular"
  ],
  "images": [
    {
      "uri": "textures/Rupee_Symbol_baseColor.jpeg"
    },
    {
      "uri": "textures/Rupee_Symbol_metallicRoughness.png"
    }
  ],
  "materials": [
    {
      "doubleSided": true,
      "extensions": {
        "KHR_materials_specular": {
          "specularColorFactor": [
            1.0,
            1.0,
            1.0
          ],
          "specularFactor": 1.0
        }
      },
      "name": "Rupee_Symbol",
      "pbrMetallicRoughness": {
        "baseColorTexture": {
          "index": 0
        },
        "metallicRoughnessTexture": {
          "index": 1
        }
      }
    }
  ],
  "meshes": [
    {
      "name": "Rupee Symbol_Rupee Symbol_0",
      "primitives": [
        {
          "attributes": {
            "NORMAL": 1,
            "POSITION": 0,
            "TEXCOORD_0": 2,
            "TEXCOORD_1": 3
          },
          "indices": 4,
          "material": 0,
          "mode": 4
        }
      ]
    }
  ],
  "nodes": [
    {
      "children": [
        1
      ],
      "matrix": [
        1.0,
        -2.8327693431939995e-16,
        2.8327693431939985e-16,
        0.0,
        -2.832769343193999e-16,
        -2.2204460492503126e-16,
        1.0,
        0.0,
        -2.832769343193999e-16,
        -1.0,
        -2.2204460492503136e-16,
        0.0,
        0.0,
        0.0,
        0.0,
        1.0
      ],
      "name": "Sketchfab_model"
    },
    {
      "children": [
        2
      ],
      "matrix": [
        0.009999999776482582,
        0.0,
        0.0,
        0.0,
        0.0,
        -0.009999999776482582,
        0.0,
        0.0,
        0.0,
        0.0,
        -0.009999999776482582,
        0.0,
        0.0,
        0.0,
        0.0,
        1.0
      ],
      "name": "59ac32dd054148daa99f1a7b1ed5cf17.fbx"
    },
    {
      "children": [
        3
      ],
      "name": "RootNode"
    },
    {
      "children": [
        4
      ],
      "matrix": [
        0.736391007900238,
        0.0,
        0.0,
        0.0,
        0.0,
        0.736391007900238,
        0.0,
        0.0,
        0.0,
        0.0,
        0.736391007900238,
        0.0,
        0.0,
        0.0,
        0.0,
        1.0
      ],
      "name": "Rupee Symbol"
    },
    {
      "children": [
        5
      ],
      "matrix": [
        1.0,
        0.0,
        -0.0,
        0.0,
        0.0,
        1.0,
        0.0,
        0.0,
        0.0,
        0.0,
        1.0,
        0.0,
        -2.6147172451019287,
        4.999997615814209,
        10.52750301361084,
        1.0
      ],
      "name": "Object_4"
    },
    {
      "mesh": 0,
      "name": "Rupee Symbol_Rupee Symbol_0"
    }
  ],
  "samplers": [
    {
      "magFilter": 9729,
      "minFilter": 9987,
      "wrapS": 10497,
      "wrapT": 10497
    }
  ],
  "scene": 0,
  "scenes": [
    {
      "name": "Sketchfab_Scene",
      "nodes": [
        0
      ]
    }
  ],
  "textures": [
    {
      "sampler": 0,
      "source": 0
    },
    {
      "sampler": 0,
      "source": 1
    }
  ]
}
